<?xml version="1.0" encoding="utf-8"?>
<!-- Generator: Adobe Illustrator 21.1.0, SVG Export Plug-In . SVG Version: 6.00 Build 0)  -->
<svg version="1.1" id="Icons" xmlns="http://www.w3.org/2000/svg" xmlns:xlink="http://www.w3.org/1999/xlink" x="0px" y="0px"
	 viewBox="0 0 48 48" style="enable-background:new 0 0 48 48;" xml:space="preserve">
<style type="text/css">
	.st0{opacity:0.15;fill:#45413C;}
	.st1{fill:#FF6196;}
	.st2{fill:#FF87AF;}
	.st3{fill:none;stroke:#45413C;stroke-linecap:round;stroke-linejoin:round;stroke-miterlimit:10;}
	.st4{fill:#FFE500;stroke:#45413C;stroke-linecap:round;stroke-linejoin:round;stroke-miterlimit:10;}
	.st5{fill:#FFE500;}
	.st6{fill:#EBCB00;}
	.st7{fill:#EBCB00;stroke:#45413C;stroke-linecap:round;stroke-linejoin:round;stroke-miterlimit:10;}
	.st8{fill:#FFF48C;}
	.st9{fill:#FFCCDD;stroke:#FFB0CA;stroke-linecap:round;stroke-linejoin:round;stroke-miterlimit:10;}
	.st10{fill:#FFB0CA;stroke:#FF87AF;stroke-linecap:round;stroke-linejoin:round;stroke-miterlimit:10;}
	.st11{opacity:0.7;fill:#FFE5EE;}
	.st12{fill:#009FD9;}
	.st13{fill:#00B8F0;}
	.st14{fill:#656769;}
	.st15{fill:#87898C;}
	.st16{fill:#FF6242;stroke:#45413C;stroke-linecap:round;stroke-linejoin:round;stroke-miterlimit:10;}
	.st17{fill:#4AEFF7;}
	.st18{fill:#00DFEB;}
	.st19{fill:#A6FBFF;}
	.st20{fill:#FFFFFF;}
	.st21{fill:#E5F8FF;}
	.st22{fill:#E5F8FF;stroke:#45413C;stroke-linecap:round;stroke-linejoin:round;stroke-miterlimit:10;}
	.st23{fill:#FFE500;stroke:#EBCB00;stroke-linecap:round;stroke-linejoin:round;stroke-miterlimit:10;}
	.st24{fill:#BDBEC0;}
	.st25{fill:#4ACFFF;}
	.st26{fill:#E8F4FA;stroke:#45413C;stroke-linecap:round;stroke-linejoin:round;stroke-miterlimit:10;}
	.st27{fill:#80DDFF;}
	.st28{fill:#009FD9;stroke:#45413C;stroke-linecap:round;stroke-linejoin:round;stroke-miterlimit:10;}
	.st29{fill:#B8ECFF;}
	.st30{fill:#4ACFFF;stroke:#45413C;stroke-linecap:round;stroke-linejoin:round;stroke-miterlimit:10;}
	.st31{fill:#B8ECFF;stroke:#45413C;stroke-linecap:round;stroke-linejoin:round;stroke-miterlimit:10;}
	.st32{fill:#FFFACF;}
	.st33{fill:#FFF48C;stroke:#45413C;stroke-linecap:round;stroke-linejoin:round;stroke-miterlimit:10;}
	.st34{fill:#BF8256;}
	.st35{fill:#DEA47A;}
	.st36{fill:#656769;stroke:#45413C;stroke-linecap:round;stroke-linejoin:round;stroke-miterlimit:10;}
	.st37{fill:#FF8A14;}
	.st38{fill:#FFAA54;}
	.st39{fill:#EB6D00;}
	.st40{fill:#627B8C;stroke:#45413C;stroke-linecap:round;stroke-linejoin:round;stroke-miterlimit:10;}
	.st41{fill:#FFFFFF;stroke:#45413C;stroke-linecap:round;stroke-linejoin:round;stroke-miterlimit:10;}
	.st42{fill:#E0366F;stroke:#45413C;stroke-linecap:round;stroke-linejoin:round;stroke-miterlimit:10;}
	.st43{fill:#FF87AF;stroke:#45413C;stroke-linecap:round;stroke-linejoin:round;stroke-miterlimit:10;}
	.st44{fill:#E0366F;}
	.st45{fill:#FF6196;stroke:#45413C;stroke-linecap:round;stroke-linejoin:round;stroke-miterlimit:10;}
	.st46{fill:#525252;}
	.st47{fill:#DEBB7E;}
	.st48{fill:#F0D5A8;}
	.st49{fill:#DAEDF7;}
	.st50{fill:#F7E5C6;}
	.st51{fill:#DEBB7E;stroke:#45413C;stroke-linecap:round;stroke-linejoin:round;stroke-miterlimit:10;}
	.st52{fill:#FFF5E3;}
	.st53{fill:#00F5BC;}
	.st54{fill:#FFB0CA;stroke:#45413C;stroke-linecap:round;stroke-linejoin:round;stroke-miterlimit:10;}
	.st55{fill:#8CFFE4;}
	.st56{fill:#00DBA8;}
	.st57{fill:#87898C;stroke:#45413C;stroke-linecap:round;stroke-linejoin:round;stroke-miterlimit:10;}
	.st58{fill:#FF6242;}
	.st59{fill:#FF866E;}
	.st60{fill:#F0F0F0;}
	.st61{fill:#BDBEC0;stroke:#45413C;stroke-width:1.0064;stroke-linecap:round;stroke-linejoin:round;stroke-miterlimit:10;}
	.st62{fill:#947746;stroke:#45413C;stroke-linecap:round;stroke-linejoin:round;stroke-miterlimit:10;}
	.st63{fill:#B89558;}
	.st64{fill:#E04122;}
	.st65{fill:#C0DCEB;}
	.st66{fill:#E8F4FA;}
	.st67{fill:#00B8F0;stroke:#45413C;stroke-linecap:round;stroke-linejoin:round;stroke-miterlimit:10;}
	.st68{fill:#80DDFF;stroke:#45413C;stroke-linecap:round;stroke-linejoin:round;stroke-miterlimit:10;}
	.st69{fill:#9CEB60;}
	.st70{fill:#C8FFA1;}
	.st71{fill:#FFB0CA;}
	.st72{fill:#FFCCDD;}
	.st73{fill:#FFE5EE;}
	.st74{fill:#45413C;stroke:#45413C;stroke-linecap:round;stroke-linejoin:round;stroke-miterlimit:10;}
	.st75{fill:#FFCABF;}
	.st76{fill:#FFA694;}
	.st77{fill:#FFA694;stroke:#45413C;stroke-linecap:round;stroke-linejoin:round;stroke-miterlimit:10;}
	.st78{fill:#FFCC99;}
	.st79{fill:#8CA4B8;}
	.st80{fill:#ADC4D9;}
	.st81{fill:#F0D5A8;stroke:#45413C;stroke-linecap:round;stroke-linejoin:round;stroke-miterlimit:10;}
	.st82{fill:#BDBEC0;stroke:#45413C;stroke-linecap:round;stroke-linejoin:round;stroke-miterlimit:10;}
	.st83{fill:#E0E0E0;}
	.st84{fill:#45413C;}
	.st85{fill:#E5FEFF;}
	.st86{fill:#FFFCE5;}
	.st87{fill:#FFAA54;stroke:#45413C;stroke-linecap:round;stroke-linejoin:round;stroke-miterlimit:10;}
	.st88{fill:#6DD627;}
	.st89{fill:#46B000;}
	.st90{fill:#FFE8E0;}
	.st91{fill:#FFCEBF;}
	.st92{fill:#FFE8D1;}
	.st93{fill:#FFF48C;stroke:#4F4B45;stroke-linecap:round;stroke-linejoin:round;stroke-miterlimit:10;}
	.st94{fill:#FFDCD1;stroke:#4F4B45;stroke-linejoin:round;stroke-miterlimit:10;}
	.st95{fill:none;stroke:#4F4B45;stroke-linejoin:round;stroke-miterlimit:10;}
	.st96{fill:none;stroke:#4F4B45;stroke-linecap:round;stroke-linejoin:round;stroke-miterlimit:10;}
	.st97{fill:#656769;stroke:#4F4B45;stroke-linejoin:round;stroke-miterlimit:10;}
	.st98{fill:#87898C;stroke:#4F4B45;stroke-linecap:round;stroke-linejoin:round;stroke-miterlimit:10;}
	.st99{fill:#C0DCEB;stroke:#4F4B45;stroke-linecap:round;stroke-linejoin:round;stroke-miterlimit:10;}
	.st100{fill:#FFA694;stroke:#4F4B45;stroke-linecap:round;stroke-linejoin:round;stroke-miterlimit:10;}
	.st101{fill:#E04122;stroke:#45413C;stroke-linecap:round;stroke-linejoin:round;stroke-miterlimit:10;}
	.st102{fill:#FFFCE5;stroke:#45413C;stroke-linecap:round;stroke-linejoin:round;stroke-miterlimit:10;}
	.st103{fill:#915E3A;}
	.st104{fill:none;stroke:#915E3A;stroke-linecap:round;stroke-linejoin:round;stroke-miterlimit:10;}
	.st105{fill:#915E3A;stroke:#45413C;stroke-linecap:round;stroke-linejoin:round;stroke-miterlimit:10;}
	.st106{fill:#FF866E;stroke:#45413C;stroke-linecap:round;stroke-linejoin:round;stroke-miterlimit:10;}
	.st107{fill:#FFF5E3;stroke:#45413C;stroke-linecap:round;stroke-linejoin:round;stroke-miterlimit:10;}
	.st108{fill:#FFDCD1;}
	.st109{fill:#FFDCD1;stroke:#45413C;stroke-linecap:round;stroke-linejoin:round;stroke-miterlimit:10;}
	.st110{fill:#F0C2A1;}
	.st111{fill:#FFE3CF;}
	.st112{fill:#FFFACF;stroke:#45413C;stroke-linecap:round;stroke-linejoin:round;stroke-miterlimit:10;}
	.st113{fill:#DEA47A;stroke:#45413C;stroke-linecap:round;stroke-linejoin:round;stroke-miterlimit:10;}
	.st114{fill:#F0C2A1;stroke:#45413C;stroke-linecap:round;stroke-linejoin:round;stroke-miterlimit:10;}
	.st115{fill:#EB6D00;stroke:#45413C;stroke-linecap:round;stroke-linejoin:round;stroke-miterlimit:10;}
	.st116{fill:#FF8A14;stroke:#45413C;stroke-linecap:round;stroke-linejoin:round;stroke-miterlimit:10;}
	.st117{fill:#D9FDFF;}
	.st118{fill:#C8FFA1;stroke:#45413C;stroke-linecap:round;stroke-linejoin:round;stroke-miterlimit:10;}
	.st119{fill:#E4FFD1;}
	.st120{fill:#E0E0E0;stroke:#45413C;stroke-linecap:round;stroke-linejoin:round;stroke-miterlimit:10;}
	.st121{fill:#FFCCDD;stroke:#45413C;stroke-linecap:round;stroke-linejoin:round;stroke-miterlimit:10;}
	.st122{fill:#BF8256;stroke:#45413C;stroke-linecap:round;stroke-linejoin:round;stroke-miterlimit:10;}
	.st123{fill:#C0DCEB;stroke:#45413C;stroke-linecap:round;stroke-linejoin:round;stroke-miterlimit:10;}
</style>
<g>
	<path id="XMLID_12225_" class="st118" d="M42,33c0,0,2.9,0.7,4.5,0c-0.4,2.4-2.8,3.6-5,3.5S42,33,42,33z"/>
	<ellipse id="XMLID_12224_" class="st0" cx="26" cy="42.5" rx="19" ry="1.5"/>
	<path id="XMLID_12223_" class="st70" d="M17.5,23.5c0-4.1-3.4-7.5-7.5-7.5s-8.5,4.4-8.5,8.5S5.9,31,10,31h0.5c0,3.9,3.1,7,7,7V23.5
		z"/>
	<path class="st119" d="M10.1,18.8c3.8,0,6.9,2.8,7.4,6.4v-1.7c0-4.1-3.4-7.5-7.5-7.5s-8.5,4.4-8.5,8.5c0,0.5,0.1,1.1,0.2,1.5
		C2.5,22.3,6.4,18.8,10.1,18.8z"/>
	<path id="XMLID_12222_" class="st3" d="M17.5,23.5c0-4.1-3.4-7.5-7.5-7.5s-8.5,4.4-8.5,8.5S5.9,31,10,31h0.5c0,3.9,3.1,7,7,7V23.5z
		"/>
	<path id="XMLID_12221_" class="st7" d="M41.6,37.3c0.3-1.5,0.5-3.2,0.4-4.8c-0.4-7.5-5.9-13.6-12.4-13.9C22.1,18.2,16,25,16,33.5
		c0,1.3,0.1,2.6,0.4,3.8c0.1,0.4,0.4,0.8,0.8,0.8c14.4,3.5,24.6-0.2,23.6,0C41.2,38.1,41.5,37.7,41.6,37.3z"/>
	<path id="XMLID_12220_" class="st89" d="M42,34.1c0-0.5,0-1.1,0-1.6c-0.4-7.5-5.9-13.6-12.4-13.9C22.1,18.2,16,25,16,33.5
		c0,0.1,0,0.1,0,0.2c2.2,1.2,6.4,2.8,13.4,2.8C35.6,36.5,39.6,35.2,42,34.1z"/>
	<path id="XMLID_12219_" class="st88" d="M16.3,33.8c1.3-6.9,6.8-12,13.2-11.7c6,0.3,11,5.4,12.2,12.1c0.1,0,0.2-0.1,0.2-0.1
		c0-0.5,0-1.1,0-1.6c-0.4-7.5-5.9-13.6-12.4-13.9C22.1,18.2,16,25,16,33.5c0,0.1,0,0.1,0,0.2C16.1,33.7,16.2,33.8,16.3,33.8z"/>
	<path id="XMLID_12218_" class="st3" d="M42,34.1c0-0.5,0-1.1,0-1.6c-0.4-7.5-5.9-13.6-12.4-13.9C22.1,18.2,16,25,16,33.5
		c0,0.1,0,0.1,0,0.2c2.2,1.2,6.4,2.8,13.4,2.8C35.6,36.5,39.6,35.2,42,34.1z"/>
	<path class="st70" d="M19,31.5c-2.2,0-4,1.8-4,4l-0.4,5.4c0,0.6,0.4,1.1,1,1.1h6c0.5,0,1-0.4,1-0.9l0.4-5.6
		C23,33.3,21.2,31.5,19,31.5z"/>
	<path class="st119" d="M18.8,34.6c2,0,3.6,1.4,4,3.2l0.2-2.3c0-2.2-1.8-4-4-4s-4,1.8-4,4l-0.2,2C15.4,35.8,16.9,34.6,18.8,34.6z"/>
	<path class="st70" d="M43.4,40.9L43,35.5c0-2.2-1.8-4-4-4s-4,1.8-4,4l0.4,5.6c0,0.5,0.5,0.9,1,0.9h6C43,42,43.5,41.5,43.4,40.9z"/>
	<path class="st119" d="M39.2,34.6c-2,0-3.6,1.4-4,3.2L35,35.5c0-2.2,1.8-4,4-4s4,1.8,4,4l0.2,2C42.6,35.8,41.1,34.6,39.2,34.6z"/>
	<path class="st3" d="M19,31.5c-2.2,0-4,1.8-4,4l-0.4,5.4c0,0.6,0.4,1.1,1,1.1h6c0.5,0,1-0.4,1-0.9l0.4-5.6
		C23,33.3,21.2,31.5,19,31.5z"/>
	<path class="st3" d="M43.4,40.9L43,35.5c0-2.2-1.8-4-4-4s-4,1.8-4,4l0.4,5.6c0,0.5,0.5,0.9,1,0.9h6C43,42,43.5,41.5,43.4,40.9z"/>
	<circle id="XMLID_12217_" class="st74" cx="9.6" cy="21.4" r="1.1"/>
	<circle id="XMLID_12216_" class="st69" cx="13.2" cy="25.3" r="1.3"/>
	<path id="XMLID_12215_" class="st3" d="M3.8,29c0,0,4,0.6,5.2-2.5"/>
	<path id="XMLID_12214_" class="st3" d="M20.9,21.7c0,0,2.3,3.8,3.6,3.9s2.7-1.9,4.5-1.9s3.8,3,4.9,2.8s4.4-3.4,4.4-3.4"/>
	<line id="XMLID_12213_" class="st3" x1="29" y1="23.7" x2="29" y2="18.5"/>
	<path id="XMLID_12212_" class="st3" d="M24.5,25.6c0,0-2.1,3.3-2.4,7.4"/>
	<path id="XMLID_12211_" class="st3" d="M33.9,26.5c0,0,1.4,2.5,1.9,6.7"/>
	<path id="XMLID_12210_" class="st3" d="M22.7,33.9c0,0,5.5,1.2,12.6,0.2"/>
</g>
</svg>
